<svg id="Layer_1" enable-background="new 0 0 500.149 500.149" height="512" viewBox="0 0 500.149 500.149" width="512" xmlns="http://www.w3.org/2000/svg"><g><g><path d="m492.396 311.976c.231-.892.454-1.791.675-2.69-.219.899-.447 1.795-.675 2.69z" fill="#bfe5fe"/><path d="m250.075 0c-96.236 0-155.512 54.278-155.675 54.37-3.714 17.144-10.174 42.023-10.174 60.278 0 138.112 116.469 250.047 254.582 250.047 58.858 0 112.935-27.404 155.653-61.43.174-1.066 5.688-23.023 5.688-53.191 0-138.112-111.962-250.074-250.074-250.074z" fill="#a07bee"/><path d="m338.786 357.635c-138.112 0-250.075-111.962-250.075-250.075 0-18.255 1.974-36.047 5.688-53.191-.006.005-.011.009-.017.014-57.511 45.818-94.382 116.445-94.382 195.692 0 43.16 10.934 83.767 30.183 119.2l217.799 130.848 2.093.026c116.743 0 214.772-80.007 242.321-188.173.228-.896.457-1.791.675-2.69.104-.427 1.047-4.435 1.39-6.02-42.718 34.025-96.817 54.369-155.675 54.369z" fill="#8e6ae6"/></g><g><g><path d="m478.075 210.805c0 42.736-60.117 64.147-134.289 64.147s-126.846-21.411-126.846-64.147c0-24.469 12.248-46.285 43.022-60.465 22.973-10.585 52.111-16.915 83.814-16.915 74.171 0 134.299 34.644 134.299 77.38z" fill="#eaa857"/><path d="m240.736 161.185c-19.508 13.433-31.259 30.734-31.259 49.62 0 42.736 60.128 77.38 134.299 77.38s134.299-34.644 134.299-77.38c0-1.071-.051-2.135-.126-3.195-34.077 11.035-140.615 20.359-237.213-46.425z" fill="#d2953d"/><path d="m437.318 142.661c1.958-4.916 3.046-10.274 3.046-15.888 0-23.734-19.24-42.974-42.974-42.974h-5.67c5.38-8.612 8.478-17.691 8.478-28.089 0-27.484-22.28-49.763-49.764-49.763-1.577 0-3.133.082-4.672.225.636 3.175.974 6.458.974 9.82 0 5.468-.891 10.726-2.521 15.648h-20.689v111.022h113.792z" fill="#935a40"/><path d="m412.784 140.418c-48.493 0-87.805-39.312-87.805-87.805 0-7.231.892-14.251 2.541-20.974h-5.875c-18.842 0-34.116 15.274-34.116 34.116 0 6.627 1.896 12.809 5.166 18.044h-2.512c-23.734 0-42.974 19.24-42.974 42.974s19.24 42.974 42.974 42.974h107.207c20.444 0 37.542-14.281 41.892-33.408-8.362 2.645-17.262 4.079-26.498 4.079z" fill="#6b3e2d"/><g><path d="m231.798 306.401s-7.708-70.283-.35-63.633c7.359-2.712 14.756-5.622 22.185-8.728 7.429 6.257 14.889 12.317 22.373 18.181 7.484-3.5 14.991-7.197 22.514-11.09 7.522 5.469 15.059 10.742 22.604 15.817 7.545-4.288 15.098-8.772 22.652-13.454 7.554 4.682 15.108 9.167 22.654 13.454 7.546-5.075 15.085-10.348 22.608-15.817 7.523 3.894 15.031 7.591 22.515 11.091 7.484-5.863 14.945-11.923 22.374-18.18 7.431 3.106 14.83 6.015 22.19 8.727 7.36-6.651 14.682-13.499 21.956-20.545-10.717 57.847-21.535 115.266-32.43 172.257-1.302 6.812-6.588 12.149-13.378 13.561-58.761 12.22-119.434 12.136-178.168-.253-3.356-.706-22.299-101.388-22.299-101.388z" fill="#f8e565"/><path d="m231.448 242.769c7.512 55.213 15.065 110.22 22.65 165.022-.034-.007-.067-.014-.101-.021-6.036-1.275-10.694-6.085-11.852-12.145-10.969-57.367-21.86-115.166-32.648-173.4 7.273 7.045 14.593 13.893 21.951 20.544z" fill="#82c6a6"/><g fill="#f3d14c"><path d="m253.633 234.041c7.584 59.492 15.201 118.779 22.842 177.861 4.319.677 8.645 1.289 12.978 1.835-4.49-53.768-8.972-107.606-13.447-161.515-7.483-5.863-14.944-11.924-22.373-18.181z"/><path d="m298.521 241.131c3.777 58.279 7.557 116.509 11.341 174.689 4.531.355 9.066.638 13.604.851-.78-53.239-1.56-106.48-2.34-159.723-7.546-5.075-15.084-10.347-22.605-15.817z"/><path d="m343.776 243.495v173.651c4.41 0 8.821-.067 13.229-.201 3.143-53.298 6.285-106.63 9.425-159.996-7.546-4.288-15.099-8.772-22.654-13.454z"/><path d="m389.039 241.133c-3.334 58.233-6.671 116.427-10.01 174.583 4.928-.401 9.851-.886 14.766-1.455 5.932-53.889 11.853-107.901 17.759-162.036-7.484-3.501-14.992-7.198-22.515-11.092z"/><path d="m433.928 234.043c-7.43 59.459-14.89 118.722-22.374 177.787 5.855-.924 11.696-1.969 17.519-3.135 9.064-55.016 18.083-110.325 27.045-165.925-7.36-2.712-14.759-5.621-22.19-8.727z"/></g></g><g><path d="m242.932 77.02c4.861 21.168-4.843 41.461-4.843 41.461s-17.584-14.027-22.445-35.195 4.843-41.461 4.843-41.461 17.585 14.027 22.445 35.195z" fill="#82a857"/><path d="m222.607 73.472c15.358 15.358 17.909 37.706 17.909 37.706s-22.349-2.551-37.706-17.909-17.909-37.706-17.909-37.706 22.348 2.551 37.706 17.909z" fill="#95bd59"/><path d="m212.229 89.503c20.126 8.164 31.179 27.755 31.179 27.755s-21.578 6.354-41.704-1.811-31.179-27.755-31.179-27.755 21.578-6.353 41.704 1.811z" fill="#82a857"/><g><path d="m298.813 88.314c15.553 15.553 38.042 74.376 15.632 96.786s-75.738-7.224-90.858-23.199c-26.499-27.998-21.531-44.371.879-66.781s50.116-31.037 74.347-6.806z" fill="#dd3e3e"/><path d="m273.477 157.473c-10.73-2.303-21.499-5.253-31.293-10.326-13.516-7.001-24.36-21.269-19.132-37.122 1.334-4.046 3.739-7.3 6.83-9.488l-5.417-5.417c-22.41 22.41-33.305 46.349-6.806 74.348 15.119 15.975 74.376 38.042 96.786 15.632l-29.039-29.039c-3.659 1.727-7.94 2.269-11.929 1.412z" fill="#bc1b2c"/><g><g><path d="m285.205 155.712c-2.799 2.799-6.885 4.192-12.144 4.14-15.285-.151-38.296-12.689-46.35-21.067-15.577-16.205-16.503-30.728-2.833-44.399 13.014-13.014 29.631-11.936 44.451 2.883 9.682 9.682 29.495 45.824 16.876 58.443z" fill="#de5c5c"/></g></g></g></g></g><circle cx="212.708" cy="174.848" fill="#935a40" r="13.663"/><g><path d="m288.987 304.659c0 42.736-60.117 64.147-134.289 64.147s-126.845-21.411-126.845-64.147c0-24.469 12.248-46.285 43.022-60.465 22.973-10.585 52.111-16.915 83.814-16.915 74.171 0 134.298 34.644 134.298 77.38z" fill="#935a40"/><path d="m51.649 255.038c-19.508 13.433-31.259 30.734-31.259 49.62 0 42.736 60.128 77.38 134.299 77.38s134.299-34.644 134.299-77.38c0-1.071-.051-2.135-.126-3.195-34.077 11.036-140.616 20.359-237.213-46.425z" fill="#6b3e2d"/><path d="m248.231 236.515c1.958-4.916 3.046-10.274 3.046-15.888 0-23.734-19.24-42.974-42.974-42.974h-5.67c5.38-8.612 8.478-17.691 8.478-28.089 0-27.484-22.28-49.763-49.764-49.763-1.576 0-3.133.082-4.672.225.636 3.175.974 6.458.974 9.82 0 5.468-.891 10.726-2.521 15.648h-20.689v111.022h113.792z" fill="#fefad8"/><path d="m223.696 234.272c-48.493 0-87.805-39.312-87.805-87.805 0-7.231.892-14.251 2.541-20.974h-5.875c-18.842 0-34.116 15.274-34.116 34.116 0 6.627 1.896 12.809 5.166 18.044h-2.512c-23.734 0-42.974 19.24-42.974 42.974s19.24 42.974 42.974 42.974h107.207c20.444 0 37.542-14.281 41.892-33.408-8.362 2.644-17.261 4.079-26.498 4.079z" fill="#f9eab5"/><g><path d="m247.982 500.123c4.396-2.419 7.602-6.689 8.576-11.786 10.895-56.992 21.713-114.411 32.43-172.257-7.274 7.045-14.596 13.893-21.956 20.545-7.36-2.712-14.76-5.621-22.19-8.727-7.43 6.257-14.89 12.317-22.374 18.18-7.484-3.5-14.992-7.197-22.515-11.091-7.523 5.469-15.062 10.741-22.608 15.817-7.546-4.288-15.1-8.773-22.654-13.454-7.553 4.681-15.106 9.166-22.652 13.454-7.545-5.076-15.083-10.348-22.604-15.817-7.523 3.894-15.03 7.591-22.514 11.09-7.484-5.863-14.944-11.923-22.373-18.181-7.429 3.106-14.826 6.015-22.185 8.728-5.397-4.878-2.69 31.622-.862 51.433 44.412 67.002 120.239 111.357 206.481 112.066z" fill="#acdabf"/><g fill="#82c6a6"><path d="m42.361 336.622c-7.358-6.651-14.678-13.499-21.951-20.543 3.317 17.902 6.646 35.749 9.981 53.57 6.14 11.257 13.13 21.981 20.866 32.106-2.971-21.683-5.937-43.387-8.896-65.133z"/><path d="m95.269 446.46c-2.786-33.438-5.57-66.893-8.35-100.385-7.484-5.863-14.944-11.923-22.373-18.181 4.404 34.544 8.82 69.01 13.244 103.416 5.586 5.313 11.421 10.367 17.479 15.15z"/><path d="m133.806 471.507c-.59-40.234-1.179-80.469-1.769-120.705-5.659-3.807-11.313-7.724-16.96-11.752-1.882-1.343-3.764-2.698-5.644-4.065 2.751 42.45 5.504 84.865 8.259 127.263 5.244 3.278 10.619 6.368 16.114 9.259z"/><path d="m169.332 486.802c2.671-45.313 5.342-90.637 8.011-135.999-5.66-3.216-11.324-6.543-16.989-9.98-1.888-1.146-3.777-2.304-5.665-3.474v143.939c4.808 1.985 9.69 3.825 14.643 5.514z"/><path d="m206.01 496.254c5.496-49.958 10.983-100.009 16.456-150.177-7.484-3.5-14.992-7.197-22.515-11.091-3.019 52.731-6.04 105.425-9.064 158.092 4.985 1.21 10.027 2.27 15.123 3.176z"/><path d="m244.841 327.897c-7.138 57.123-14.305 114.059-21.493 170.818 5.635.599 11.325 1.011 17.066 1.229 8.919-54.158 17.797-108.597 26.617-163.321-6.824-2.514-13.682-5.205-20.566-8.058-.542-.224-1.082-.441-1.624-.668z"/></g></g></g><g fill="#935a40"><circle cx="148.1" cy="124.841" r="13.663"/><circle cx="108.243" cy="169.747" r="13.663"/><circle cx="158.42" cy="211.022" r="13.663"/></g></g></g></svg>