<svg height="512" viewBox="0 0 128 128" width="512" xmlns="http://www.w3.org/2000/svg"><g id="Circle_Grid" data-name="Circle Grid"><circle cx="64" cy="64" fill="#fe7058" r="64"/></g><g id="icon"><path d="m84.565 93.1.987 4.624a.784.784 0 0 0 .767.621h4.881a.784.784 0 0 0 .767-.621l.987-4.624z" fill="#3a556a"/><path d="m35.045 93.1.987 4.624a.784.784 0 0 0 .767.621h4.882a.784.784 0 0 0 .767-.621l.987-4.624z" fill="#3a556a"/><rect fill="#d5d6db" height="65.554" rx="4.997" width="65.554" x="31.223" y="29.655"/><path d="m96.777 45.917v-11.265a5 5 0 0 0 -5-5h-55.557a5 5 0 0 0 -5 5v11.265z" fill="#e1e6e9"/><path d="m87.675 35.451a2.541 2.541 0 1 0 2.541 2.54 2.54 2.54 0 0 0 -2.541-2.54z" fill="#3e6b82"/><path d="m87.675 36.316a1.675 1.675 0 1 0 1.675 1.675 1.674 1.674 0 0 0 -1.675-1.675z" fill="#758fa0"/><path d="m80.353 35.451a2.541 2.541 0 1 0 2.54 2.54 2.541 2.541 0 0 0 -2.54-2.54z" fill="#3e6b82"/><path d="m80.353 36.316a1.675 1.675 0 1 0 1.675 1.675 1.675 1.675 0 0 0 -1.675-1.675z" fill="#758fa0"/><path d="m73.03 35.451a2.541 2.541 0 1 0 2.541 2.54 2.54 2.54 0 0 0 -2.541-2.54z" fill="#3e6b82"/><path d="m73.03 36.316a1.675 1.675 0 1 0 1.675 1.675 1.674 1.674 0 0 0 -1.675-1.675z" fill="#758fa0"/><circle cx="64" cy="68.793" fill="#3e6b82" r="14.243" transform="matrix(.383 -.924 .924 .383 -24.048 101.595)"/><circle cx="64" cy="68.793" fill="#89c5cd" r="10.844" transform="matrix(.383 -.924 .924 .383 -24.048 101.595)"/><path d="m53.166 68.981a10.835 10.835 0 0 0 21.668 0z" fill="#029bc5"/><rect fill="#3a556a" height="8.535" rx=".273" width="15.701" x="37.455" y="33.465"/><path d="m42.038 30.882h6.535v13.702h-6.535z" fill="#89c5cd" transform="matrix(0 1 -1 0 83.038 -7.573)"/><g fill="#3a556a"><path d="m40.834 38.418c-.064.059-.127.12-.189.182l-.85-.849c.074-.074.148-.145.224-.215z"/><path d="m41.65 37.775c-.071.047-.14.095-.209.145l-.7-.973c.081-.059.164-.117.247-.172z"/><path d="m42.535 37.278c-.075.035-.15.071-.224.109l-.546-1.071c.088-.044.176-.087.265-.128z"/><path d="m43.472 36.928c-.079.023-.158.047-.235.073l-.378-1.141c.092-.03.185-.059.278-.086q.168.578.335 1.154z"/><path d="m44.442 36.726c-.081.011-.162.023-.242.036l-.2-1.184c.094-.016.19-.03.285-.043z"/><path d="m45.427 36.671c-.081 0-.162 0-.244 0q-.011-.6-.022-1.2h.289q-.012.599-.023 1.2z"/><path d="m46.411 36.762c-.08-.013-.161-.025-.242-.036l.158-1.191c.095.013.19.027.285.043z"/><path d="m47.374 37c-.078-.026-.156-.05-.235-.073q.168-.576.334-1.154c.094.027.186.056.278.086q-.187.573-.377 1.141z"/><path d="m48.3 37.387c-.074-.038-.149-.074-.224-.109q.252-.544.505-1.09c.089.041.177.084.265.128z"/><path d="m49.17 37.92c-.069-.05-.139-.1-.209-.145l.666-1c.083.055.166.113.247.172q-.352.486-.704.973z"/><path d="m49.966 38.6c-.062-.062-.125-.123-.189-.182l.815-.882c.076.07.15.141.223.215z"/><path d="m45.305 40.165a.867.867 0 1 0 .867.867.867.867 0 0 0 -.867-.867z"/><path d="m45.305 37.347-.446 3.31h.888z"/></g></g></svg>