<svg id="Capa_1" enable-background="new 0 0 512 512" height="512" viewBox="0 0 512 512" width="512" xmlns="http://www.w3.org/2000/svg" xmlns:xlink="http://www.w3.org/1999/xlink"><linearGradient id="SVGID_1_" gradientUnits="userSpaceOnUse" x1="256" x2="256" y1="512" y2="0"><stop offset="0" stop-color="#ffe59a"/><stop offset="1" stop-color="#ffffd5"/></linearGradient><linearGradient id="SVGID_2_" gradientUnits="userSpaceOnUse" x1="256" x2="256" y1="105" y2="407"><stop offset="0" stop-color="#fd5900"/><stop offset="1" stop-color="#ffde00"/></linearGradient><g><circle cx="256" cy="256" fill="url(#SVGID_1_)" r="256"/><g><g><path d="m389.235 371.471h-168.764v17.765c0 6.5-1.882 12.518-4.942 17.765h155.942c14.717 0 26.647-11.93 26.647-26.647 0-4.907-3.977-8.883-8.883-8.883zm-257.588-266.471c-9.812 0-17.765 7.953-17.765 17.765v44.412c0 4.905 3.977 8.882 8.882 8.882h26.647v-53.294c.001-9.812-7.952-17.765-17.764-17.765zm151 124.353h-17.765v17.765h17.765zm17.765 26.647c0 4.905-3.977 8.882-8.882 8.882h-35.53c-4.905 0-8.882-3.977-8.882-8.882v-26.647h-17.765v71.059h88.823v-71.059h-17.765v26.647zm79.941-124.353c0-14.717-11.93-26.647-26.647-26.647h-191.472c3.06 5.247 4.942 11.264 4.942 17.765v266.471c0 9.81 7.953 17.765 17.765 17.765s17.765-7.954 17.765-17.765v-26.647c0-4.906 3.977-8.882 8.882-8.882h168.765zm-159.882 8.882c4.905 0 8.882 3.976 8.882 8.882 0 4.905-3.977 8.882-8.882 8.882s-8.882-3.977-8.882-8.882c-.001-4.906 3.976-8.882 8.882-8.882zm0 35.53c4.905 0 8.882 3.976 8.882 8.882 0 4.905-3.977 8.882-8.882 8.882s-8.882-3.977-8.882-8.882c-.001-4.906 3.976-8.882 8.882-8.882zm115.47 133.235c0 4.905-3.977 8.882-8.882 8.882h-106.588c-4.905 0-8.882-3.977-8.882-8.882v-88.824c0-4.906 3.977-8.882 8.882-8.882h106.588c4.905 0 8.882 3.976 8.882 8.882zm-8.882-115.471h-71.059c-4.91 0-8.882-3.973-8.882-8.882s3.973-8.882 8.882-8.882h71.059c4.91 0 8.882 3.973 8.882 8.882s-3.973 8.882-8.882 8.882zm0-35.529h-71.059c-4.91 0-8.882-3.973-8.882-8.882 0-4.91 3.973-8.882 8.882-8.882h71.059c4.91 0 8.882 3.973 8.882 8.882s-3.973 8.882-8.882 8.882z" fill="url(#SVGID_2_)"/></g></g></g></svg>