<svg id="Capa_1" enable-background="new 0 0 512 512" height="512" viewBox="0 0 512 512" width="512" xmlns="http://www.w3.org/2000/svg"><g><path d="m69.439 431.303c-43.142-45.895-69.541-107.712-69.439-175.696.212-140.966 115.512-255.864 256.477-255.607 141.166.258 255.523 114.774 255.523 256 0 79.978-36.675 151.389-94.125 198.334-4.165 3.403-10.21 3.244-14.14-.428-45.748-42.744-107.186-68.906-174.735-68.906-55.296 0-106.497 17.532-148.348 47.34-3.487 2.483-8.281 2.083-11.213-1.037z" fill="#f44545"/><path d="m466.397 242.614c0 111.072-90.042 201.114-201.114 201.114s-201.115-90.041-201.115-201.114 90.042-201.114 201.114-201.114 201.115 90.042 201.115 201.114z" fill="#fb5858"/><path d="m99.769 458.815c-11.001-8.486-21.292-17.848-30.769-27.98v-41.835c0-38.66 31.34-70 70-70h72.279c-56.581 0-102.449 24.418-102.449 81v54.352c0 4.668-5.366 7.314-9.061 4.463z" fill="#86befb"/><path d="m389 389v63.991c0 14.065-8.002 26.913-20.635 33.095-33.922 16.597-72.055 25.914-112.365 25.914-59.168 0-113.647-20.073-157-53.78v-69.22c0-38.66 31.34-70 70-70h150c38.66 0 70 31.34 70 70z" fill="#a7d0fc"/><path d="m337.21 413.074v85.776c-4.935 1.649-9.937 3.153-15 4.505v-90.281c0-4.142 3.358-7.5 7.5-7.5s7.5 3.358 7.5 7.5zm-208.92-7.5c-4.142 0-7.5 3.358-7.5 7.5v60.346c4.892 3.049 9.895 5.937 15 8.657v-69.004c0-4.141-3.358-7.499-7.5-7.499zm57.859-76.574c0 23.666 19.185 42.851 42.851 42.851s42.851-19.185 42.851-42.851v-10h-85.702z" fill="#86befb"/><path d="m328 450c0 2.762-2.238 5-5 5s-5-2.238-5-5c0-13.785-11.215-25-25-25s-25 11.215-25 25c0 2.762-2.238 5-5 5s-5-2.238-5-5c0-17.602 13.061-32.21 30-34.643v-70.357c0-33.084-26.916-60-60-60s-60 26.916-60 60v75c0 2.762-2.238 5-5 5s-5-2.238-5-5v-75c0-38.598 31.402-70 70-70s70 31.402 70 70v70.357c16.939 2.433 30 17.041 30 34.643z" fill="#0a3575"/><path d="m193 430c0 16.569-13.431 30-30 30s-30-13.431-30-30 13.431-30 30-30 30 13.431 30 30z" fill="#3493f8"/><path d="m183 430c0 11.046-8.954 20-20 20s-20-8.954-20-20 8.954-20 20-20 20 8.954 20 20zm80 10c-5.523 0-10 4.477-10 10s4.477 10 10 10 10-4.477 10-10-4.477-10-10-10zm60 0c-5.523 0-10 4.477-10 10s4.477 10 10 10 10-4.477 10-10-4.477-10-10-10z" fill="#2476ed"/><path d="m418 419.292v34.94c-15.292 12.512-32.059 23.29-50 32.032v-66.973h50z" fill="#faa68e"/><path d="m423 355v15.766c0 4.443-1.931 8.434-5 11.18v39.47h-50v-41.006c-2.191-2.608-3.511-5.971-3.511-9.644v-15.766c0-8.284 6.716-15 15-15h28.511c8.284 0 15 6.716 15 15z" fill="#2476ed"/><path d="m428 421.417c0 4.142-3.358 7.5-7.5 7.5h-55c-4.142 0-7.5-3.358-7.5-7.5s3.358-7.5 7.5-7.5h55c4.142 0 7.5 3.357 7.5 7.5z" fill="#5596fb"/><path d="m144 194v10c0 13.807-11.193 25-25 25s-25-11.193-25-25v-10c0-13.807 11.193-25 25-25s25 11.193 25 25z" fill="#ffbeaa"/><path d="m109 189v20c0 8.178 3.927 15.439 9.998 20-13.806-.001-24.998-11.194-24.998-25v-10c0-13.806 11.192-24.999 24.998-25-6.071 4.561-9.998 11.822-9.998 20zm230-20v-20c0-60.751-49.249-110-110-110-60.751 0-110 49.249-110 110v40c0 50.351 33.83 92.801 80 105.859v34.141c0 16.569 13.431 30 30 30 16.569 0 30-13.431 30-30v-34.141c33.586-9.499 60.641-34.551 72.895-66.883 2.252.666 4.637 1.024 7.105 1.024 13.807 0 25-11.193 25-25v-10c0-13.807-11.193-25-25-25z" fill="#faa68e"/><path d="m339 149v40c0 50.792-34.425 93.543-81.216 106.195-9.023 2.439-18.545 2.439-27.568 0-46.791-12.652-81.216-55.403-81.216-106.195v-40c0-55.663 41.345-101.669 95-108.985 53.655 7.316 95 53.322 95 108.985z" fill="#ffbeaa"/><path d="m344.897 200.877c-2.506 58.53-50.75 105.213-109.897 105.213h-12c-59.001 0-107.152-46.452-109.878-104.779-.013-.142-.019-.285-.02-.43v-.004c0-.004 0-.007 0-.01v-34.532c0-2.761 2.239-5 5-5s5 2.239 5 5v28.103c22.296-12.377 67.258-29.922 90.778-38.81 9.746-3.683 20.493-3.683 30.239 0 28.021 10.588 86.472 33.463 100.778 45.249z" fill="#c8e2fd"/><path d="m344.897 166.335v34.542.004c0 .143-.007.285-.019.425-2.181 46.722-33.51 85.826-76.217 99.538-9.617-.552-22.053-2.206-38.445-5.649-47.436-9.965-81.216-55.403-81.216-106.195v-7.125c22.168-9.842 48.637-20.109 64.881-26.247 9.746-3.683 20.493-3.683 30.239 0 23.52 8.888 68.482 26.432 90.778 38.81v-28.103c0-2.761 2.239-5 5-5s4.999 2.239 4.999 5z" fill="#fff5f5"/><path d="m196.5 156.5c0 8.284-6.716 15-15 15s-15-6.716-15-15 6.716-15 15-15 15 6.716 15 15zm80-15c-8.284 0-15 6.716-15 15s6.716 15 15 15 15-6.716 15-15-6.716-15-15-15z" fill="#4c2c21"/><path d="m199 149c0 4.142-3.358 7.5-7.5 7.5s-7.5-3.358-7.5-7.5 3.358-7.5 7.5-7.5 7.5 3.358 7.5 7.5zm87.5-7.5c-4.142 0-7.5 3.358-7.5 7.5s3.358 7.5 7.5 7.5 7.5-3.358 7.5-7.5-3.358-7.5-7.5-7.5z" fill="#fff5f5"/><path d="m355 78.095c0 43.13-62.412 21.905-132 21.905s-120 21.225-120-21.905c0-43.131 56.412-78.095 126-78.095s126 34.964 126 78.095z" fill="#a7d0fc"/><path d="m177.078 78.095c0 12.733 3.224 19.857 9.08 23.574-49.846 4.021-83.158 11.486-83.158-23.574 0-43.131 56.412-78.095 126-78.095 7.984 0 15.794.46 23.366 1.341-42.857 6.79-75.288 38.572-75.288 76.754zm88.028 21.905c-6.086 0-11.971.302-17.618.76 29.79 1.707 56.866 5.587 76.395 4.149-16.624-1.128-37.232-4.909-58.777-4.909z" fill="#86befb"/><path d="m398 145v110c0 2.761-2.239 5-5 5s-5-2.239-5-5v-110c0-2.761 2.239-5 5-5s5 2.239 5 5z" fill="#0a3575"/><path d="m401.889 208.889v48.889c0 4.909-3.98 8.889-8.889 8.889s-8.889-3.98-8.889-8.889v-48.889c0-4.909 3.98-8.889 8.889-8.889s8.889 3.98 8.889 8.889z" fill="#5596fb"/><path d="m401.889 332.222v48.889c0 4.909-3.98 8.889-8.889 8.889s-8.889-3.98-8.889-8.889v-48.889c0-4.909 3.98-8.889 8.889-8.889s8.889 3.98 8.889 8.889z" fill="#5596fb"/><path d="m413 239.602v105.51c0 8.837-7.164 16-16 16h-8c-8.836 0-16-7.163-16-16v-105.51c0-6.53 5.294-11.824 11.824-11.824h16.353c6.529 0 11.823 5.294 11.823 11.824z" fill="#c8e2fd"/><path d="m413 239.444v76.667c0 6.443-5.223 11.667-11.667 11.667-6.443 0-11.667-5.223-11.667-11.667v-76.667c0-6.443 5.223-11.667 11.667-11.667 6.444.001 11.667 5.224 11.667 11.667z" fill="#fff5f5"/><path d="m443 363.333c0 3.682-2.985 6.667-6.667 6.667h-86.667c-3.682 0-6.667-2.985-6.667-6.667s2.985-6.667 6.667-6.667h86.667c3.682.001 6.667 2.985 6.667 6.667z" fill="#86befb"/><path d="m413 386.667c0 3.682-2.985 6.667-6.667 6.667h-26.667c-3.682 0-6.667-2.985-6.667-6.667 0-3.682 2.985-6.667 6.667-6.667h26.667c3.682 0 6.667 2.985 6.667 6.667z" fill="#97bffd"/><path d="m390.002 375.713c0 4.142-3.358 7.5-7.5 7.5h-15c-4.142 0-7.5-3.358-7.5-7.5s3.358-7.5 7.5-7.5h15c4.142 0 7.5 3.358 7.5 7.5zm-18.013-12.83c4.142 0 7.5-3.358 7.5-7.5v-7.883c0-4.142-3.358-7.5-7.5-7.5s-7.5 3.358-7.5 7.5v7.883c0 4.142 3.358 7.5 7.5 7.5zm50.511-22.883c-1.921 0-3.673.723-5 1.91-1.327-1.188-3.079-1.91-5-1.91-4.142 0-7.5 3.358-7.5 7.5v5c0 4.142 3.358 7.5 7.5 7.5 1.921 0 3.673-.722 5-1.91 1.327 1.188 3.079 1.91 5 1.91 4.142 0 7.5-3.358 7.5-7.5v-5c0-4.142-3.358-7.5-7.5-7.5z" fill="#2476ed"/><path d="m230.264 100.074c-2.411-.048-4.833-.074-7.264-.074-.958 0-1.911.004-2.861.012-1.94-17.345-2.063-32.661-.203-44.802.298-1.944 1.678-3.454 3.434-4.011.709-.225 1.48-.295 2.266-.174 2.729.418 4.603 2.97 4.185 5.7-1.755 11.453-1.539 26.367.443 43.349zm57.274-55.553c-.712-.353-1.468-.519-2.212-.519-1.842 0-3.614 1.022-4.486 2.785-6.722 13.596-12.027 32.719-15.558 55.221 3.406.272 6.758.555 10.049.833 3.375-21.195 8.328-39.196 14.472-51.621 1.225-2.476.21-5.475-2.265-6.699zm48.634 24.402c-.448-.577-.998-1.03-1.604-1.352-1.684-.893-3.807-.778-5.411.467-8.992 6.976-19.888 20.211-30.419 36.625 4.027.248 7.9.43 11.598.511 8.829-13.144 17.639-23.563 24.95-29.236 2.183-1.692 2.579-4.834.886-7.015zm-166.155-24.921c-.687 0-1.385.143-2.051.443-2.518 1.134-3.64 4.095-2.505 6.613 4.89 10.853 8.291 29.807 9.437 51.584 3.237-.293 6.559-.587 9.958-.867-1.251-22.876-4.955-43.012-10.278-54.825-.834-1.851-2.655-2.948-4.561-2.948zm-41.006 21.801c-1.549-1.313-3.664-1.52-5.385-.7-.62.295-1.189.724-1.661 1.282-1.785 2.106-1.526 5.262.581 7.047 7.27 6.162 15.911 17.423 24.403 31.506 3.534-.19 7.247-.464 11.127-.787-9.889-17.057-20.308-30.925-29.065-38.348z" fill="#76b6fa"/><path d="m339.907 109.959c-.584 2.253-2.613 3.748-4.837 3.748-.415 0-.837-.052-1.257-.16-57.795-14.961-151.832-14.961-209.627 0-2.67.689-5.4-.915-6.094-3.588-.691-2.673.914-5.401 3.588-6.094 59.176-15.316 155.463-15.316 214.639 0 2.674.693 4.28 3.421 3.588 6.094z" fill="#c8e2fd"/><path d="m174.022 200.826c-.737-2.661.822-5.416 3.483-6.153 28.395-7.865 74.594-7.865 102.988 0 2.661.737 4.221 3.492 3.483 6.153-.613 2.214-2.624 3.666-4.815 3.666-.442 0-.891-.059-1.338-.183-26.922-7.457-70.727-7.457-97.648 0-2.655.739-5.415-.821-6.153-3.483zm103.802 52.816c-26.922 7.457-70.727 7.457-97.648 0-2.663-.738-5.417.822-6.153 3.483-.737 2.661.822 5.416 3.483 6.153 14.197 3.933 32.846 5.899 51.494 5.899s37.297-1.967 51.494-5.899c2.661-.737 4.221-3.492 3.483-6.153-.737-2.662-3.496-4.221-6.153-3.483zm29.356-25.933c-43.109-7.75-113.25-7.75-156.359 0-2.718.488-4.525 3.088-4.036 5.806.488 2.718 3.091 4.524 5.806 4.036 42.133-7.572 110.688-7.572 152.82 0 .3.054.597.08.891.08 2.374 0 4.48-1.698 4.915-4.116.488-2.718-1.32-5.318-4.037-5.806z" fill="#c8e2fd"/><path d="m477 178.667c0 2.761-2.238 5-5 5h-8.333v8.333c0 2.761-2.238 5-5 5s-5-2.239-5-5v-8.333h-8.334c-2.762 0-5-2.239-5-5s2.238-5 5-5h8.334v-8.333c0-2.761 2.238-5 5-5s5 2.239 5 5v8.333h8.333c2.762 0 5 2.238 5 5z" fill="#ffaee0"/><path d="m430 118.333c0 2.761-2.238 5-5 5h-8.333v8.333c0 2.761-2.238 5-5 5s-5-2.239-5-5v-8.333h-8.334c-2.762 0-5-2.239-5-5s2.238-5 5-5h8.334v-8.333c0-2.761 2.238-5 5-5s5 2.239 5 5v8.333h8.333c2.762 0 5 2.239 5 5z" fill="#fff"/></g></svg>