<svg id="Capa_1" enable-background="new 0 0 512 512" height="512" viewBox="0 0 512 512" width="512" xmlns="http://www.w3.org/2000/svg"><g><g><g><g><g><g><circle cx="256" cy="256" fill="#ffce00" r="256"/></g></g></g></g></g><path d="m507.135 305.919-74.381-74.381-173.861 10.661-38.116-38.116-6.885 8.339-86.657-86.657-47.991 248.47 134.253 134.253c13.825 2.31 28.024 3.512 42.503 3.512 124.303 0 227.913-88.593 251.135-206.081z" fill="#ffa300"/><g><path d="m384.763 298.217h47.991v76.018h-47.991z" fill="#a65d4e"/></g><g fill="#c38778"><path d="m79.245 125.765h47.991v106.463h-47.991z"/><path d="m79.245 303.033h47.991v71.202h-47.991z"/></g><g><path d="m79.245 231.539h201.482v72.844h-201.482z" fill="#e86e35"/></g><g fill="#c45325"><path d="m256.121 231.539h24.607v72.844h-24.607z"/><path d="m364.564 231.539h68.19v72.844h-68.19z"/></g><g><path d="m279.859 231.538h86.009v121.449h-86.009z" fill="#e9edf5"/></g><g><path d="m203.1 231.538h-56.443c-10.725 0-19.42-8.695-19.42-19.42 0-10.725 8.695-19.42 19.42-19.42h56.443c10.725 0 19.42 8.695 19.42 19.42-.001 10.726-8.695 19.42-19.42 19.42z" fill="#fff"/></g></g></svg>