<svg id="Capa_1" enable-background="new 0 0 512 512" height="512" viewBox="0 0 512 512" width="512" xmlns="http://www.w3.org/2000/svg"><g><g><g><g><g><g><g><g><g><circle cx="256" cy="256" fill="#ff6c52" r="256"/></g></g></g></g></g></g></g></g><path d="m512 256c0-3.782-.082-7.545-.245-11.288l-93.186-93.186-347.059 165.857 22.991 22.991-16.709 38.172 128.664 128.664c16.029 3.143 32.594 4.79 49.544 4.79 141.385 0 256-114.615 256-256z" fill="#f92814"/><g><g><path d="m95.385 378.546h-17.593l1.697-73.629h29.579z" fill="#ffce00"/></g><g><path d="m416.615 378.546h17.593l-1.696-73.629h-29.58z" fill="#fdba12"/></g></g><g><path d="m427.11 304.917h-342.22v-128.244c0-22.823 18.502-41.325 41.325-41.325h259.571c22.823 0 41.325 18.502 41.325 41.325v128.244z" fill="#e9edf5"/></g><g><path d="m427.11 176.673c0-22.823-18.502-41.325-41.325-41.325h-129.665v169.569h170.99z" fill="#cdd2e1"/></g><g><path d="m416.815 326.54h-321.63c-19.432 0-35.185-15.753-35.185-35.186 0-19.432 15.753-35.185 35.185-35.185h321.629c19.432 0 35.185 15.753 35.185 35.185.001 19.433-15.752 35.186-35.184 35.186z" fill="#fff"/></g><g><path d="m416.815 256.169h-160.695v70.371h160.694c19.432 0 35.185-15.753 35.185-35.185.001-19.433-15.752-35.186-35.184-35.186z" fill="#e9edf5"/></g><g><g><g><circle cx="386.417" cy="177.071" fill="#afb4c8" r="10.29"/></g><g><circle cx="386.417" cy="220.605" fill="#afb4c8" r="10.29"/></g></g><g><g><circle cx="299.472" cy="177.071" fill="#afb4c8" r="10.29"/></g><g><circle cx="299.472" cy="220.605" fill="#afb4c8" r="10.29"/></g></g><g><g><circle cx="212.528" cy="177.071" fill="#cdd2e1" r="10.29"/></g><g><circle cx="212.528" cy="220.605" fill="#cdd2e1" r="10.29"/></g></g><g><g><circle cx="125.583" cy="177.071" fill="#cdd2e1" r="10.29"/></g><g><circle cx="125.583" cy="220.605" fill="#cdd2e1" r="10.29"/></g></g></g></g></svg>