<?xml version="1.0" encoding="iso-8859-1"?>
<!-- Generator: Adobe Illustrator 16.0.0, SVG Export Plug-In . SVG Version: 6.00 Build 0)  -->
<!DOCTYPE svg PUBLIC "-//W3C//DTD SVG 1.1//EN" "http://www.w3.org/Graphics/SVG/1.1/DTD/svg11.dtd">
<svg version="1.1" id="Capa_1" xmlns="http://www.w3.org/2000/svg" xmlns:xlink="http://www.w3.org/1999/xlink" x="0px" y="0px"
	 width="454px" height="454px" viewBox="0 0 454 454" style="enable-background:new 0 0 454 454;" xml:space="preserve">
<g>
	<path d="M0,0v454h454V0H0z M213.302,228.062v138.553h-58.314V228.062c-27.717-11.458-47.222-38.753-47.222-70.61
		c0-33.183,21.162-61.418,50.725-71.959v72.755h51.308V85.493c29.562,10.541,50.727,38.776,50.727,71.959
		C260.523,189.309,241.02,216.605,213.302,228.062z M346.234,368.507h-58.313V229.955h16.385V161.29l-4.548-24.271l6.346-51.526
		h21.949l6.346,51.526l-4.549,24.271v68.666h16.386L346.234,368.507L346.234,368.507z"/>
</g>
<g>
</g>
<g>
</g>
<g>
</g>
<g>
</g>
<g>
</g>
<g>
</g>
<g>
</g>
<g>
</g>
<g>
</g>
<g>
</g>
<g>
</g>
<g>
</g>
<g>
</g>
<g>
</g>
<g>
</g>
</svg>
